<svg id="kity_svg_8" xmlns="http://www.w3.org/2000/svg" xmlns:xlink="http://www.w3.org/1999/xlink" version="1.1" width="610" height="558" style="background: rgb(230, 238, 242); visibility: visible;" viewBox="0 0 610 558"><defs id="kity_defs_9"><linearGradient id="kity_linearGradient_19" x1="0" y1="0" x2="0" y2="1"><stop id="kity_stop_20" offset="0" stop-color="rgb(67, 188, 0)"></stop><stop id="kity_stop_21" offset="1" stop-color="rgb(67, 188, 0)"></stop></linearGradient><marker id="kity_marker_0" orient="auto" markerWidth="13" markerHeight="13" refX="12" refY="6"><path id="kity_path_1" fill="#3982fc" stroke="none" d="M2,2 L4,6 L2,11 L12,6 Z"></path></marker></defs><g id="kity_g_10"><g id="minder1" text-rendering="optimize-speed"><g id="minder_connect_group1" stroke-linecap="round"><path id="kity_path_34" fill="none" stroke="#bdc5c9" stroke-width="2" d="M86,346h85v-137H216"></path><path id="kity_path_44" fill="none" stroke="#bdc5c9" stroke-width="2" d="M86,346h85v137H216"></path><path id="kity_path_52" fill="none" stroke="#bdc5c9" stroke-width="1" d="M325.5,208.5h20v-154H370.5"></path><path id="kity_path_60" fill="none" stroke="#bdc5c9" stroke-width="1" d="M446.5,54.5h20v-22H486.5"></path><path id="kity_path_68" fill="none" stroke="#bdc5c9" stroke-width="1" d="M446.5,54.5h20v22H486.5"></path><path id="kity_path_76" fill="none" stroke="#bdc5c9" stroke-width="1" d="M325.5,208.5h20v-44H370.5"></path><path id="kity_path_84" fill="none" stroke="#bdc5c9" stroke-width="1" d="M446.5,164.5h20v-44H486.5"></path><path id="kity_path_92" fill="none" stroke="#bdc5c9" stroke-width="1" d="M446.5,164.5h20v0H486.5"></path><path id="kity_path_100" fill="none" stroke="#bdc5c9" stroke-width="1" d="M446.5,164.5h20v44H486.5"></path><path id="kity_path_108" fill="none" stroke="#bdc5c9" stroke-width="1" d="M325.5,208.5h20v66H370.5"></path><path id="kity_path_116" fill="none" stroke="#bdc5c9" stroke-width="1" d="M446.5,274.5h20v-22H486.5"></path><path id="kity_path_124" fill="none" stroke="#bdc5c9" stroke-width="1" d="M446.5,274.5h20v22H486.5"></path><path id="kity_path_132" fill="none" stroke="#bdc5c9" stroke-width="1" d="M325.5,208.5h20v154H370.5"></path><path id="kity_path_140" fill="none" stroke="#bdc5c9" stroke-width="1" d="M446.5,362.5h20v-22H486.5"></path><path id="kity_path_148" fill="none" stroke="#bdc5c9" stroke-width="1" d="M446.5,362.5h20v22H486.5"></path><path id="kity_path_156" fill="none" stroke="#bdc5c9" stroke-width="1" d="M341.5,482.5h20v-44H386.5"></path><path id="kity_path_164" fill="none" stroke="#bdc5c9" stroke-width="1" d="M341.5,482.5h20v0H386.5"></path><path id="kity_path_172" fill="none" stroke="#bdc5c9" stroke-width="1" d="M341.5,482.5h20v44H386.5"></path></g><g id="minder_rel_line_group1"></g><g id="minder_node1"><path id="kity_path_42" fill="rgba(0, 0, 0, .25)" stroke="none" d="M51.5,323.5h92a27,27,0,0,1,27,27v0a27,27,0,0,1,-27,27h-92a27,27,0,0,1,-27,-27v0a27,27,0,0,1,27,-27z" display="none"></path><path id="node_outline1" fill="#1cabfc" stroke="transparent" d="M25.5,320.5h120a5,5,0,0,1,5,5v40a5,5,0,0,1,-5,5h-120a5,5,0,0,1,-5,-5v-40a5,5,0,0,1,5,-5z" stroke-width="0"></path><g id="node_text1" fill="#fff"><text id="kity_text_25" text-rendering="inherit" font-size="20" dy="1em" y="335.5" x="45.5">排序算法</text></g></g><g id="kity_g_14"><path id="kity_path_15" fill="none" stroke="none" d="M45.5,345.5h0v0h0z"></path></g><g id="kity_g_16"><path id="kity_path_17" fill="none" stroke="none" d="M45.5,345.5h0v0h0z"></path><path id="kity_path_18" fill="none" stroke="none"></path></g><g id="minder_node2"><path id="kity_path_41" fill="rgba(0, 0, 0, .25)" stroke="none" d="M224.5,199.5h60a10,10,0,0,1,10,10v8a10,10,0,0,1,-10,10h-60a10,10,0,0,1,-10,-10v-8a10,10,0,0,1,10,-10z" display="none"></path><g id="node_expander1" style="cursor: pointer;"><path id="kity_path_39" fill="white" stroke="gray" d="M214.5,208.5A8,8,0,1,1,198.5,208.5A8,8,0,1,1,214.5,208.5"></path><path id="kity_path_40" fill="none" stroke="gray" d="M200,208.5L213,208.5"></path></g><path id="node_outline2" fill="#fff" stroke="#ccc" d="M218.5,192.5h104a3,3,0,0,1,3,3v26a3,3,0,0,1,-3,3h-104a3,3,0,0,1,-3,-3v-26a3,3,0,0,1,3,-3z" stroke-width="1"></path><g id="node_text2" fill="#333"><text id="kity_text_36" text-rendering="inherit" font-size="16" dy="1em" y="200.5" x="230.5">比较类排序</text></g></g><g id="minder_node3"><g id="node_expander2" style="cursor: pointer;"><path id="kity_path_49" fill="white" stroke="gray" d="M214.5,482.5A8,8,0,1,1,198.5,482.5A8,8,0,1,1,214.5,482.5"></path><path id="kity_path_50" fill="none" stroke="gray" d="M200,482.5L213,482.5"></path></g><path id="node_outline3" fill="#fff" stroke="#ccc" d="M218.5,466.5h120a3,3,0,0,1,3,3v26a3,3,0,0,1,-3,3h-120a3,3,0,0,1,-3,-3v-26a3,3,0,0,1,3,-3z" stroke-width="1"></path><g id="node_text3" fill="#333"><text id="kity_text_46" text-rendering="inherit" font-size="16" dy="1em" y="474.5" x="230.5">非比较类排序</text></g></g><g id="minder_node4"><g id="node_expander3" style="cursor: pointer;"><path id="kity_path_57" fill="white" stroke="gray" d="M370.5,54.5A8,8,0,1,1,354.5,54.5A8,8,0,1,1,370.5,54.5"></path><path id="kity_path_58" fill="none" stroke="gray" d="M356,54.5L369,54.5"></path></g><path id="node_outline4" fill="none" stroke="none" d="M375.5,42.5h66a5,5,0,0,1,5,5v14a5,5,0,0,1,-5,5h-66a5,5,0,0,1,-5,-5v-14a5,5,0,0,1,5,-5z" stroke-width="0"></path><g id="node_text4" fill="#333"><text id="kity_text_54" text-rendering="inherit" font-size="14" dy="1em" y="47.5" x="380.5">交换排序</text></g></g><g id="minder_node5"><g id="node_expander4" style="cursor: pointer;" display="none"><path id="kity_path_65" fill="white" stroke="gray" d="M486.5,32.5A8,8,0,1,1,470.5,32.5A8,8,0,1,1,486.5,32.5"></path><path id="kity_path_66" fill="none" stroke="gray"></path></g><path id="node_outline5" fill="none" stroke="none" d="M491.5,20.5h66a5,5,0,0,1,5,5v14a5,5,0,0,1,-5,5h-66a5,5,0,0,1,-5,-5v-14a5,5,0,0,1,5,-5z" stroke-width="0"></path><g id="node_text5" fill="#333"><text id="kity_text_62" text-rendering="inherit" font-size="14" dy="1em" y="25.5" x="496.5">冒泡排序</text></g></g><g id="minder_node6"><g id="node_expander5" style="cursor: pointer;" display="none"><path id="kity_path_73" fill="white" stroke="gray" d="M486.5,76.5A8,8,0,1,1,470.5,76.5A8,8,0,1,1,486.5,76.5"></path><path id="kity_path_74" fill="none" stroke="gray"></path></g><path id="node_outline6" fill="none" stroke="none" d="M491.5,64.5h66a5,5,0,0,1,5,5v14a5,5,0,0,1,-5,5h-66a5,5,0,0,1,-5,-5v-14a5,5,0,0,1,5,-5z" stroke-width="0"></path><g id="node_text6" fill="#333"><text id="kity_text_70" text-rendering="inherit" font-size="14" dy="1em" y="69.5" x="496.5">快速排序</text></g></g><g id="minder_node7"><g id="node_expander6" style="cursor: pointer;"><path id="kity_path_81" fill="white" stroke="gray" d="M370.5,164.5A8,8,0,1,1,354.5,164.5A8,8,0,1,1,370.5,164.5"></path><path id="kity_path_82" fill="none" stroke="gray" d="M356,164.5L369,164.5"></path></g><path id="node_outline7" fill="none" stroke="none" d="M375.5,152.5h66a5,5,0,0,1,5,5v14a5,5,0,0,1,-5,5h-66a5,5,0,0,1,-5,-5v-14a5,5,0,0,1,5,-5z" stroke-width="0"></path><g id="node_text7" fill="#333"><text id="kity_text_78" text-rendering="inherit" font-size="14" dy="1em" y="157.5" x="380.5">插入排序</text></g></g><g id="minder_node8"><g id="node_expander7" style="cursor: pointer;" display="none"><path id="kity_path_89" fill="white" stroke="gray" d="M486.5,120.5A8,8,0,1,1,470.5,120.5A8,8,0,1,1,486.5,120.5"></path><path id="kity_path_90" fill="none" stroke="gray"></path></g><path id="node_outline8" fill="none" stroke="none" d="M491.5,108.5h94a5,5,0,0,1,5,5v14a5,5,0,0,1,-5,5h-94a5,5,0,0,1,-5,-5v-14a5,5,0,0,1,5,-5z" stroke-width="0"></path><g id="node_text8" fill="#333"><text id="kity_text_86" text-rendering="inherit" font-size="14" dy="1em" y="113.5" x="496.5">简单插入排序</text></g></g><g id="minder_node9"><g id="node_expander8" style="cursor: pointer;" display="none"><path id="kity_path_97" fill="white" stroke="gray" d="M486.5,164.5A8,8,0,1,1,470.5,164.5A8,8,0,1,1,486.5,164.5"></path><path id="kity_path_98" fill="none" stroke="gray"></path></g><path id="node_outline9" fill="none" stroke="none" d="M491.5,152.5h94a5,5,0,0,1,5,5v14a5,5,0,0,1,-5,5h-94a5,5,0,0,1,-5,-5v-14a5,5,0,0,1,5,-5z" stroke-width="0"></path><g id="node_text9" fill="#333"><text id="kity_text_94" text-rendering="inherit" font-size="14" dy="1em" y="157.5" x="496.5">折半插入排序</text></g></g><g id="minder_node10"><g id="node_expander9" style="cursor: pointer;" display="none"><path id="kity_path_105" fill="white" stroke="gray" d="M486.5,208.5A8,8,0,1,1,470.5,208.5A8,8,0,1,1,486.5,208.5"></path><path id="kity_path_106" fill="none" stroke="gray"></path></g><path id="node_outline10" fill="none" stroke="none" d="M491.5,196.5h66a5,5,0,0,1,5,5v14a5,5,0,0,1,-5,5h-66a5,5,0,0,1,-5,-5v-14a5,5,0,0,1,5,-5z" stroke-width="0"></path><g id="node_text10" fill="#333"><text id="kity_text_102" text-rendering="inherit" font-size="14" dy="1em" y="201.5" x="496.5">希尔排序</text></g></g><g id="minder_node11"><g id="node_expander10" style="cursor: pointer;"><path id="kity_path_113" fill="white" stroke="gray" d="M370.5,274.5A8,8,0,1,1,354.5,274.5A8,8,0,1,1,370.5,274.5"></path><path id="kity_path_114" fill="none" stroke="gray" d="M356,274.5L369,274.5"></path></g><path id="node_outline11" fill="none" stroke="none" d="M375.5,262.5h66a5,5,0,0,1,5,5v14a5,5,0,0,1,-5,5h-66a5,5,0,0,1,-5,-5v-14a5,5,0,0,1,5,-5z" stroke-width="0"></path><g id="node_text11" fill="#333"><text id="kity_text_110" text-rendering="inherit" font-size="14" dy="1em" y="267.5" x="380.5">选择排序</text></g></g><g id="minder_node12"><g id="node_expander11" style="cursor: pointer;" display="none"><path id="kity_path_121" fill="white" stroke="gray" d="M486.5,252.5A8,8,0,1,1,470.5,252.5A8,8,0,1,1,486.5,252.5"></path><path id="kity_path_122" fill="none" stroke="gray"></path></g><path id="node_outline12" fill="none" stroke="none" d="M491.5,240.5h94a5,5,0,0,1,5,5v14a5,5,0,0,1,-5,5h-94a5,5,0,0,1,-5,-5v-14a5,5,0,0,1,5,-5z" stroke-width="0"></path><g id="node_text12" fill="#333"><text id="kity_text_118" text-rendering="inherit" font-size="14" dy="1em" y="245.5" x="496.5">简单选择排序</text></g></g><g id="minder_node13"><g id="node_expander12" style="cursor: pointer;" display="none"><path id="kity_path_129" fill="white" stroke="gray" d="M486.5,296.5A8,8,0,1,1,470.5,296.5A8,8,0,1,1,486.5,296.5"></path><path id="kity_path_130" fill="none" stroke="gray"></path></g><path id="node_outline13" fill="none" stroke="none" d="M491.5,284.5h52a5,5,0,0,1,5,5v14a5,5,0,0,1,-5,5h-52a5,5,0,0,1,-5,-5v-14a5,5,0,0,1,5,-5z" stroke-width="0"></path><g id="node_text13" fill="#333"><text id="kity_text_126" text-rendering="inherit" font-size="14" dy="1em" y="289.5" x="496.5">堆排序</text></g></g><g id="minder_node14"><g id="node_expander13" style="cursor: pointer;"><path id="kity_path_137" fill="white" stroke="gray" d="M370.5,362.5A8,8,0,1,1,354.5,362.5A8,8,0,1,1,370.5,362.5"></path><path id="kity_path_138" fill="none" stroke="gray" d="M356,362.5L369,362.5"></path></g><path id="node_outline14" fill="none" stroke="none" d="M375.5,350.5h66a5,5,0,0,1,5,5v14a5,5,0,0,1,-5,5h-66a5,5,0,0,1,-5,-5v-14a5,5,0,0,1,5,-5z" stroke-width="0"></path><g id="node_text14" fill="#333"><text id="kity_text_134" text-rendering="inherit" font-size="14" dy="1em" y="355.5" x="380.5">归并排序</text></g></g><g id="minder_node15"><g id="node_expander14" style="cursor: pointer;" display="none"><path id="kity_path_145" fill="white" stroke="gray" d="M486.5,340.5A8,8,0,1,1,470.5,340.5A8,8,0,1,1,486.5,340.5"></path><path id="kity_path_146" fill="none" stroke="gray"></path></g><path id="node_outline15" fill="none" stroke="none" d="M491.5,328.5h94a5,5,0,0,1,5,5v14a5,5,0,0,1,-5,5h-94a5,5,0,0,1,-5,-5v-14a5,5,0,0,1,5,-5z" stroke-width="0"></path><g id="node_text15" fill="#333"><text id="kity_text_142" text-rendering="inherit" font-size="14" dy="1em" y="333.5" x="496.5">二路归并排序</text></g></g><g id="minder_node16"><g id="node_expander15" style="cursor: pointer;" display="none"><path id="kity_path_153" fill="white" stroke="gray" d="M486.5,384.5A8,8,0,1,1,470.5,384.5A8,8,0,1,1,486.5,384.5"></path><path id="kity_path_154" fill="none" stroke="gray"></path></g><path id="node_outline16" fill="none" stroke="none" d="M491.5,372.5h94a5,5,0,0,1,5,5v14a5,5,0,0,1,-5,5h-94a5,5,0,0,1,-5,-5v-14a5,5,0,0,1,5,-5z" stroke-width="0"></path><g id="node_text16" fill="#333"><text id="kity_text_150" text-rendering="inherit" font-size="14" dy="1em" y="377.5" x="496.5">多路归并排序</text></g></g><g id="minder_node17"><g id="node_expander16" style="cursor: pointer;" display="none"><path id="kity_path_161" fill="white" stroke="gray" d="M386.5,438.5A8,8,0,1,1,370.5,438.5A8,8,0,1,1,386.5,438.5"></path><path id="kity_path_162" fill="none" stroke="gray"></path></g><path id="node_outline17" fill="none" stroke="none" d="M391.5,426.5h66a5,5,0,0,1,5,5v14a5,5,0,0,1,-5,5h-66a5,5,0,0,1,-5,-5v-14a5,5,0,0,1,5,-5z" stroke-width="0"></path><g id="node_text17" fill="#333"><text id="kity_text_158" text-rendering="inherit" font-size="14" dy="1em" y="431.5" x="396.5">计数排序</text></g></g><g id="minder_node18"><g id="node_expander17" style="cursor: pointer;" display="none"><path id="kity_path_169" fill="white" stroke="gray" d="M386.5,482.5A8,8,0,1,1,370.5,482.5A8,8,0,1,1,386.5,482.5"></path><path id="kity_path_170" fill="none" stroke="gray"></path></g><path id="node_outline18" fill="none" stroke="none" d="M391.5,470.5h52a5,5,0,0,1,5,5v14a5,5,0,0,1,-5,5h-52a5,5,0,0,1,-5,-5v-14a5,5,0,0,1,5,-5z" stroke-width="0"></path><g id="node_text18" fill="#333"><text id="kity_text_166" text-rendering="inherit" font-size="14" dy="1em" y="475.5" x="396.5">桶排序</text></g></g><g id="minder_node19"><g id="node_expander18" style="cursor: pointer;" display="none"><path id="kity_path_177" fill="white" stroke="gray" d="M386.5,526.5A8,8,0,1,1,370.5,526.5A8,8,0,1,1,386.5,526.5"></path><path id="kity_path_178" fill="none" stroke="gray"></path></g><path id="node_outline19" fill="none" stroke="none" d="M391.5,514.5h66a5,5,0,0,1,5,5v14a5,5,0,0,1,-5,5h-66a5,5,0,0,1,-5,-5v-14a5,5,0,0,1,5,-5z" stroke-width="0"></path><g id="node_text19" fill="#333"><text id="kity_text_174" text-rendering="inherit" font-size="14" dy="1em" y="519.5" x="396.5">基数排序</text></g></g></g></g></svg>